<svg xmlns="http://www.w3.org/2000/svg" viewBox="0 0 244 159.5"><g id="Layer_2" data-name="Layer 2"><g id="Layer_1-2" data-name="Layer 1"><path d="M6.44.61A6.42,6.42,0,0,0,0,7.23a6.44,6.44,0,1,0,12.87,0A6.41,6.41,0,0,0,6.44.61Z"/><path d="M53.63,98.11V141c0,12.13-6.61,18.54-16.17,18.54-4.12,0-7.92-1-10.64-4.09-2.71,3.1-6.51,4.09-10.64,4.09C6.63,159.5,0,153.09,0,141V67.56H.11V24A6.46,6.46,0,0,1,6.44,17.4,6.46,6.46,0,0,1,12.77,24V97.31a7,7,0,0,1,.05.8v42.51c0,5.3,1.19,6.95,3.69,6.95,2.82,0,3.91-1.65,3.91-6.95V98.11a6.41,6.41,0,1,1,12.81,0v42.51c0,5.3,1.19,6.95,3.91,6.95s3.69-1.65,3.69-6.95V98.11a6.4,6.4,0,1,1,12.8,0Z"/><path d="M46.66,0a6.47,6.47,0,0,0-6.32,6.63v9.61a11,11,0,0,0-3.87-.56c-9.76,0-16.3,6.4-16.3,18.55V66.47C20.17,78.61,26.71,85,36.47,85,46.45,85,53,78.61,53,66.47V6.63A6.46,6.46,0,0,0,46.66,0ZM40.34,66.36c0,5.29-1.19,7-3.87,7s-3.64-1.66-3.64-7V34.45c0-5.3,1.07-7.17,3.64-7.17s3.87,2.64,3.87,7.84Z"/><path d="M151.91,69.65l-3.53-2c-2.9-1.56-4.4-3.32-4.4-6.41,0-2.88,1.29-4.75,3.86-4.75,2,0,3.22,1.55,3.65,3.75.64,3.43,2.36,5.52,5.69,5.41,3.64-.11,5.46-2.87,5.36-6.84-.22-8.94-6.23-13.47-14.81-13.47-11.15,0-16.41,6.51-16.41,16.23,0,9.94,4.72,14.13,11.49,18.11l1.81,1.1c4.72,2.76,6.22,6.29,6.22,13.14,0,6.07-.43,8.94-4.07,8.94-2.15,0-3.86-1.88-3.86-5.19,0-2.76.32-5.08.21-7a5.33,5.33,0,0,0-5.69-5.19c-3.85,0-6,2.58-6.71,6.82a23.11,23.11,0,0,0-.36,4.33,25.54,25.54,0,0,0,.75,6.44c2,7.71,7.86,11,15.44,11,11.26,0,16.95-6.51,16.95-21.08C163.5,82.9,160.6,74.29,151.91,69.65Z"/><path d="M6.44.61A6.42,6.42,0,0,0,0,7.23a6.44,6.44,0,1,0,12.87,0A6.41,6.41,0,0,0,6.44.61Z"/><path d="M53.63,98.11V141c0,12.13-6.61,18.54-16.17,18.54-4.12,0-7.92-1-10.64-4.09-2.71,3.1-6.51,4.09-10.64,4.09C6.63,159.5,0,153.09,0,141V67.56H.11V24A6.46,6.46,0,0,1,6.44,17.4,6.46,6.46,0,0,1,12.77,24V97.31a7,7,0,0,1,.05.8v42.51c0,5.3,1.19,6.95,3.69,6.95,2.82,0,3.91-1.65,3.91-6.95V98.11a6.41,6.41,0,1,1,12.81,0v42.51c0,5.3,1.19,6.95,3.91,6.95s3.69-1.65,3.69-6.95V98.11a6.4,6.4,0,1,1,12.8,0Z"/><path d="M46.66,0a6.47,6.47,0,0,0-6.32,6.63v9.61a11,11,0,0,0-3.87-.56c-9.76,0-16.3,6.4-16.3,18.55V66.47C20.17,78.61,26.71,85,36.47,85,46.45,85,53,78.61,53,66.47V6.63A6.46,6.46,0,0,0,46.66,0ZM40.34,66.36c0,5.29-1.19,7-3.87,7s-3.64-1.66-3.64-7V34.45c0-5.3,1.07-7.17,3.64-7.17s3.87,2.64,3.87,7.84Z"/><path d="M76.8,0C65.65,0,59.32,6.73,59.32,19.88v132a6.54,6.54,0,1,0,13.08,0v-22.2h8.8v22.2a6.54,6.54,0,1,0,13.08,0v-132C94.28,6.73,88,0,76.8,0Zm4.4,119.75H72.4V20.09c0-5.18,1.5-7.28,4.4-7.28s4.4,2.1,4.4,7.28Z"/><path d="M134.73,140.29v2.1a23.15,23.15,0,0,1-.54,5.13c-1.67,7.56-7.22,11-13.73,11-9.22,0-15.33-4.86-15.33-16.45V28.27h-1.5a5.79,5.79,0,0,1-5.8-6,5.79,5.79,0,0,1,5.8-6h1.5V6.63a6.33,6.33,0,1,1,12.65,0v9.72h3.33a6,6,0,0,1,0,11.92h-3.33v114c0,3.41,1,4.74,2.79,4.74s2.68-1.43,2.68-4.53v-2.21c0-3.75,2.15-6.17,5.79-6.17a5.37,5.37,0,0,1,4.76,2.62A6.8,6.8,0,0,1,134.73,140.29Z"/><path d="M207.73,19.15C207.73,7,201.18.61,191.2.61c-9.75,0-16.3,6.4-16.3,18.54V75.4c0,.44,0,.88,0,1.3s0,.85,0,1.29V140.4c0,12.14,6.55,18.55,16.3,18.55,10,0,16.53-6.41,16.53-18.55V78q0-.66,0-1.29c0-.42,0-.86,0-1.3ZM195.06,75.29c0,.52,0,1,0,1.46s0,.94,0,1.46v62.08c0,5.3-1.07,7-3.86,7-2.46,0-3.64-1.65-3.64-7V78.21c0-.5,0-1,0-1.42s0-1,0-1.5V19.38c0-5.3,1.18-7.18,3.64-7.18,2.79,0,3.86,1.88,3.86,7.18Z"/><path d="M244,18.56V152a6.33,6.33,0,1,1-12.65,0V19c0-5.31-1.08-7.18-3.86-7.18-2.48,0-3.65,1.87-3.65,7.18V152a6.33,6.33,0,1,1-12.66,0V18.56C211.18,6.41,217.72,0,227.49,0,237.46,0,244,6.41,244,18.56Z"/></g></g></svg>