<?xml version="1.0" encoding="UTF-8"?><svg id="Layer_2" xmlns="http://www.w3.org/2000/svg" viewBox="0 0 223.29 223.29"><defs><style>.cls-1,.cls-2,.cls-3,.cls-4,.cls-5{stroke:#fff;stroke-linejoin:round;}.cls-1,.cls-3,.cls-5{fill:none;}.cls-1,.cls-5{stroke-width:12px;}.cls-2{fill:#fff;}.cls-2,.cls-3,.cls-4{stroke-width:8px;}.cls-2,.cls-3,.cls-4,.cls-5{stroke-linecap:round;}</style></defs><g id="Layer_1-2"><g><circle cx="111.65" cy="111.65" r="111.65"/><polyline class="cls-1" points="53.65 172.12 53.65 71.12 169.25 71.12 169.25 147.94"/><line class="cls-5" x1="53.65" y1="172.12" x2="82.82" y2="147.94"/><line class="cls-5" x1="82.82" y1="147.94" x2="169.25" y2="147.94"/><g><path class="cls-2" d="M108.37,104.02c0,4.8-3.89,8.7-8.7,8.7-1.96,0-3.75-.64-5.2-1.72-2.12-1.6-3.5-4.13-3.5-6.98,0-4.81,3.9-8.7,8.7-8.7s8.7,3.9,8.7,8.7Z"/><rect class="cls-4" x="107.02" y="110.43" width="7.5" height="8.84"/><path class="cls-2" d="M131.92,104.02c0,2.84-1.37,5.38-3.48,6.98l-.03,.02c-1.44,1.08-3.24,1.7-5.18,1.7-4.81,0-8.7-3.9-8.7-8.7s3.9-8.7,8.7-8.7,8.7,3.9,8.7,8.7Z"/><line class="cls-3" x1="94.05" y1="110.57" x2="111.45" y2="127.97"/><line class="cls-3" x1="128.41" y1="111.01" x2="111.45" y2="127.97"/><line class="cls-3" x1="128.85" y1="110.57" x2="128.43" y2="111"/></g></g></g></svg>